<svg width="134" height="24" viewBox="0 0 134 24" fill="none" xmlns="http://www.w3.org/2000/svg">
    <path fill-rule="evenodd" clip-rule="evenodd" d="M7.54438 12.0682V9.46625L0.0142616 12.1398H0V14.8099H0.0142616L7.54438 17.4834V14.878L3.68305 13.468L7.54438 12.0648V12.0682Z" fill="white"/>
    <path fill-rule="evenodd" clip-rule="evenodd" d="M18.7277 23.9974C16.0389 23.9974 13.214 23.5108 11 22.3387V1.65877C13.1794 0.5198 16.0042 0 18.7277 0C21.4512 0 24.2094 0.486675 26.386 1.65877V9.59336H20.9044V4.19407C20.2588 3.93417 19.4746 3.83734 18.693 3.83734C17.9115 3.83734 17.1939 3.93417 16.5137 4.19407V19.8034C17.1592 20.0633 17.9088 20.1601 18.693 20.1601C19.4773 20.1601 20.2242 20.0633 20.9044 19.8034V14.4066H26.386V22.3412C24.2414 23.4802 21.4165 23.9669 18.7277 24V23.9974Z" fill="white"/>
    <path fill-rule="evenodd" clip-rule="evenodd" d="M35.8984 23.9974C33.0042 23.9974 30.214 23.4114 28 22.2087V1.7556C30.1793 0.586048 32.9722 0 35.8984 0C38.8246 0 41.5481 0.552924 43.7274 1.7556V22.2087C41.5828 23.4114 38.7579 23.9643 35.8984 23.9974ZM38.2484 4.26032C37.6029 4.00042 36.8187 3.87047 35.8664 3.87047C34.9141 3.87047 34.1645 4.00042 33.5163 4.26032V19.7065C34.1619 19.9995 34.9461 20.1295 35.8664 20.1295C36.7867 20.1295 37.5682 19.9995 38.2484 19.7065V4.26032Z" fill="white"/>
    <path fill-rule="evenodd" clip-rule="evenodd" d="M52.013 14.9239H50.548V23.4114H45V0H52.013C55.35 0 57.868 0.64975 59.842 1.98237V12.9415C57.903 14.2436 55.347 14.9239 52.013 14.9239ZM54.328 4.03099C53.819 3.67427 53.136 3.51119 51.978 3.51119H50.479V11.4127H51.978C53.101 11.4127 53.781 11.2496 54.328 10.926V4.03099Z" fill="white"/>
    <path fill-rule="evenodd" clip-rule="evenodd" d="M70.598 23.7044V15.2169H66.514V23.7044H61V1.72247C63.009 0.583501 65.834 0 68.557 0C71.281 0 74.071 0.586049 76.08 1.72247V23.7044H70.598ZM70.598 4.06412C70.019 3.80422 69.304 3.67427 68.555 3.67427C67.805 3.67427 67.09 3.80422 66.511 4.06412V11.5095H70.595V4.06412H70.598Z" fill="white"/>
    <path fill-rule="evenodd" clip-rule="evenodd" d="M87.6514 17.6851V15.0831L91.5091 13.6834L87.6514 12.2836V9.68162L95.1708 12.3551H95.1886V15.0286H95.1708L87.6514 17.6885V17.6851ZM84.4211 6L80 19.5583H82.6242L87.0453 6H84.4211Z" fill="white"/>
</svg>
    